Coordinates
version=1
nRows=21
nColumns=12
inDegrees=yes

Units are S.I. units (second, meters, Newtons, ...)
Angles are in degrees

endheader
time	SC_y	SC_z	SC_x	AC_y	AC_z	AC_x	GH_y	GH_z	GH_yy	EL_x	PS_y
       0.0              -43.59          36.39          55.58          65.74           7.91         -6.314          132.5          47.36          165.9          80.71          146.7
   0.03446              -43.59          36.39          55.57          65.73           7.91         -6.313          132.5          47.37          165.8           80.7          146.7
   0.06891              -43.58          36.39          55.57          65.73          7.909         -6.312          132.4          47.37          165.8          80.69          146.7
    0.1034              -43.58          36.39          55.56          65.73          7.909          -6.31          132.4          47.37          165.7          80.68          146.7
    0.1378              -43.58           36.4          55.56          65.72          7.908         -6.309          132.4          47.37          165.7          80.67          146.7
    0.1723              -43.58           36.4          55.55          65.72          7.908         -6.308          132.4          47.38          165.6          80.65          146.6
    0.2067              -43.57           36.4          55.55          65.72          7.907         -6.306          132.3          47.38          165.6          80.64          146.6
    0.2412              -43.57           36.4          55.54          65.71          7.907         -6.304          132.3          47.38          165.5          80.62          146.6
    0.2757              -43.57           36.4          55.54          65.71          7.906         -6.303          132.3          47.38          165.4           80.6          146.6
    0.3101              -43.56           36.4          55.53           65.7          7.905         -6.301          132.2          47.39          165.4          80.59          146.5
    0.3446              -43.56           36.4          55.52           65.7          7.905         -6.299          132.2          47.39          165.3          80.57          146.5
     0.379              -43.56           36.4          55.52          65.69          7.904         -6.296          132.2          47.39          165.2          80.54          146.5
    0.4135              -43.55           36.4          55.51          65.69          7.903         -6.294          132.1           47.4          165.1          80.52          146.5
    0.4479              -43.55           36.4           55.5          65.68          7.902         -6.292          132.1           47.4          165.0           80.5          146.4
    0.4824              -43.54           36.4          55.49          65.67          7.901         -6.289          132.0          47.41          164.9          80.47          146.4
    0.5168              -43.54           36.4          55.48          65.66            7.9         -6.286          132.0          47.41          164.8          80.44          146.3
    0.5513              -43.53          36.41          55.47          65.66          7.899         -6.283          131.9          47.42          164.7          80.41          146.3
    0.5858              -43.52          36.41          55.46          65.65          7.898         -6.279          131.8          47.42          164.5          80.37          146.3
    0.6202              -43.52          36.41          55.45          65.64          7.896         -6.275          131.8          47.43          164.4          80.33          146.2
    0.6547              -43.51          36.41          55.43          65.63          7.895         -6.271          131.7          47.44          164.2          80.29          146.1
    0.6891               -43.5          36.41          55.42          65.62          7.893         -6.266          131.6          47.44          164.1          80.25          146.1
